# xmcd CD database file
#
# Track frame offsets:
#	150
#	9486
#	23791
#	37898
#	56470
#	85896
#	101600
#	121414
#	133809
#	153453
#	170781
#	186120
#	203942
#	219158
#
# Disc length: 3159 seconds
#
# Revision: 0
# Processed by: cddbd v1.5.1PL0 Copyright (c) Steve Scherf et al.
# Submitted via: CDex 1.51
#
DISCID=b90c550e
DTITLE=スピッツ - 隼
DYEAR=1900
DGENRE=Rock
TTITLE0=今
TTITLE1=放浪カモメはどこまでも(album mix)
TTITLE2=いろは
TTITLE3=さらばユニヴァース
TTITLE4=甘い手
TTITLE5=HOLIDAY
TTITLE6=8823
TTITLE7=宇宙虫
TTITLE8=ハートが帰らない
TTITLE9=ホタル
TTITLE10=メモリーズ・カスタム
TTITLE11=俺の赤い星
TTITLE12=ジュテーム?
TTITLE13=アカネ
EXTD=
EXTT0=
EXTT1=
EXTT2=
EXTT3=
EXTT4=
EXTT5=
EXTT6=
EXTT7=
EXTT8=
EXTT9=
EXTT10=
EXTT11=
EXTT12=
EXTT13=
PLAYORDER=
